<svg width="22" height="29" viewBox="0 0 22 29" fill="none" xmlns="http://www.w3.org/2000/svg">
<path d="M5.79541 18.5962V27.6324C5.79541 28.0303 6.23762 28.2688 6.5701 28.0502L10.2717 25.6165C10.4381 25.507 10.6537 25.5068 10.8203 25.616L14.54 28.0525C14.8726 28.2704 15.314 28.0318 15.314 27.6343V18.5962" stroke="black"/>
<path d="M10.5547 0.5C16.1176 0.500137 20.6084 4.91213 20.6084 10.332C20.6083 15.7518 16.1175 20.1639 10.5547 20.1641C4.99174 20.1641 0.500101 15.7519 0.5 10.332C0.5 4.91204 4.99168 0.5 10.5547 0.5Z" stroke="black"/>
<path d="M10.5547 4.00063C14.1425 4.00074 17.0331 6.84519 17.0332 10.3317C17.0332 13.8182 14.1426 16.6626 10.5547 16.6627C6.96671 16.6627 4.07617 13.8183 4.07617 10.3317C4.07623 6.84513 6.96675 4.00063 10.5547 4.00063Z" stroke="black"/>
<path d="M10.5839 7.5368L11.2465 9.53318H13.3909L11.656 10.767L12.3187 12.7634L10.5839 11.5296L8.84907 12.7634L9.51171 10.767L7.7769 9.53318H9.92124L10.5839 7.5368Z" fill="black"/>
</svg>
