<svg width="32" height="27" viewBox="0 0 32 27" fill="none" xmlns="http://www.w3.org/2000/svg">
<line x1="0.5" y1="-0.5" x2="9.84109" y2="-0.5" transform="matrix(0.99998 -0.00630585 0.00665107 0.999978 0.0032959 13.1223)" stroke="black" stroke-linecap="round"/>
<line x1="0.5" y1="-0.5" x2="9.84109" y2="-0.5" transform="matrix(0.99998 -0.00628103 0.00667736 0.999978 4.41174 17.3978)" stroke="black" stroke-linecap="round"/>
<line x1="0.5" y1="-0.5" x2="9.84109" y2="-0.5" transform="matrix(0.99998 -0.00628103 0.00667736 0.999978 2.20752 21.6736)" stroke="black" stroke-linecap="round"/>
<path d="M30.6347 6.37647L19.8534 0.548125C19.7318 0.48241 19.5849 0.484093 19.4649 0.552577L10.0447 5.92759C9.77785 6.07988 9.77522 6.46376 10.04 6.61969L19.7944 12.3639M30.6347 6.37647L19.7944 12.3639M30.6347 6.37647L31.0101 19.9203C31.0143 20.0726 30.9317 20.2141 30.797 20.2852L19.8763 26.0496M19.7944 12.3639L19.8763 26.0496M19.8763 26.0496L14.7974 23.8043" stroke="black" stroke-linecap="round"/>
</svg>
